# xmcd
#
# Track frame offsets:
#	150
#	24961
#	44677
#	70984
#	99668
#	124218
#	147839
#	170380
#	189710
#	210293
#	228035
#	246613
#	271631
#	291375
#
# Disc length: 4204 seconds
# Revision: 0
# Processed by: cddbd v1.5.2PL0 Copyright (c) Steve Scherf et al.
# Submitted via: dBpowerAMP V12.0
#
DISCID=cd106a0e
DTITLE=Paul Felton - Time Waits For No One
DYEAR=2003
DGENRE=Blues
TTITLE0=Further Up The Road
TTITLE1=I Left My Woman
TTITLE2=Knocking On Heavens Door
TTITLE3=All Along The Watchtower
TTITLE4=Please Dont Let Me Be Misunderstood
TTITLE5=Setting Me Up
TTITLE6=The End Is Not In Sight
TTITLE7=Please Stop Messing Around
TTITLE8=Can't Hold Out
TTITLE9=You Had Better Watch Yourself
TTITLE10=Little Bit
TTITLE11=Little Wing
TTITLE12=Mercury Blues
TTITLE13=Lipstick Blues
EXTD=
EXTT0=
EXTT1=
EXTT2=
EXTT3=
EXTT4=
EXTT5=
EXTT6=
EXTT7=
EXTT8=
EXTT9=
EXTT10=
EXTT11=
EXTT12=
EXTT13=
PLAYORDER=
